# xmcd CD database file generated by OrangeCD 4.2
#
# Track frame offsets:
#	182
#	10912
#	26180
#	36425
#	57027
#	72580
#	83510
#	96917
#	109230
#	122152
#	134635
#	145855
#	158590
#	172535
#	184980
#	198475
#	208597
#	223612
#	238195
#
# Disc length: 3538 seconds
#
# Revision: 2
# Processed by: cddbd v1.4PL0 Copyright (c) Steve Scherf et al.
# Submitted via: OrangeCD 4.2
#
DISCID=150dd013
DTITLE=The Paul Butterfield Blues Band - The Original Lost Elektra Sessions
DYEAR=1995
DGENRE=Blues
TTITLE0=Good Morning Little School Girl
TTITLE1=Just To Be With You
TTITLE2=Help Me
TTITLE3=Hate To See You Go
TTITLE4=Poor Boy
TTITLE5=Nut Popper #1
TTITLE6=Everything's Gonna Be All Right
TTITLE7=Lovin' Cup
TTITLE8=Rock Me
TTITLE9=It Hurts Me Too
TTITLE10=Our Love Is Driftin'
TTITLE11=Take Me Back Baby
TTITLE12=Mellow Down Easy
TTITLE13=Ain't No Need To Go No Further
TTITLE14=Love Her With A Feeling
TTITLE15=Piney Brown Blues
TTITLE16=Spoonful
TTITLE17=That's All Right
TTITLE18=Goin' Down Slow
EXTD=
EXTT0=
EXTT1=
EXTT2=
EXTT3=
EXTT4=
EXTT5=
EXTT6=
EXTT7=
EXTT8=
EXTT9=
EXTT10=
EXTT11=
EXTT12=
EXTT13=
EXTT14=
EXTT15=
EXTT16=
EXTT17=
EXTT18=
PLAYORDER=
